<svg xmlns="http://www.w3.org/2000/svg" width="126" height="50" viewBox="0 0 126 50" fill="none"><path d="M51.9943 39.9998V36.7143L65.0597 18.3819H51.9688V13.818H72.0142V17.1035L58.9361 35.4359H72.0398V39.9998H51.9943Z" fill="black"></path><path d="M76.185 39.9998V20.3635H81.631V39.9998H76.185ZM78.9208 17.8322C78.1112 17.8322 77.4165 17.5637 76.837 17.0268C76.266 16.4814 75.9805 15.8294 75.9805 15.0708C75.9805 14.3208 76.266 13.6774 76.837 13.1404C77.4165 12.595 78.1112 12.3223 78.9208 12.3223C79.7305 12.3223 80.4208 12.595 80.9918 13.1404C81.5714 13.6774 81.8612 14.3208 81.8612 15.0708C81.8612 15.8294 81.5714 16.4814 80.9918 17.0268C80.4208 17.5637 79.7305 17.8322 78.9208 17.8322Z" fill="black"></path><path d="M91.4396 13.818V39.9998H85.9936V13.818H91.4396Z" fill="black"></path><path d="M101.248 13.818V39.9998H95.8022V13.818H101.248Z" fill="black"></path><path d="M108.973 47.3635C108.283 47.3635 107.635 47.3081 107.03 47.1973C106.433 47.095 105.939 46.9629 105.547 46.801L106.774 42.7356C107.413 42.9316 107.989 43.0382 108.5 43.0552C109.02 43.0723 109.467 42.9529 109.842 42.6973C110.226 42.4416 110.537 42.0069 110.776 41.3933L111.095 40.5623L104.051 20.3635H109.778L113.844 34.7839H114.048L118.152 20.3635H123.918L116.286 42.122C115.919 43.1788 115.42 44.0993 114.79 44.8833C114.168 45.676 113.379 46.2853 112.425 46.7115C111.47 47.1461 110.32 47.3635 108.973 47.3635Z" fill="black"></path><path d="M42.9767 44.8622C43.0482 45.2532 43.031 45.6553 42.9264 46.0388C42.8219 46.4223 42.6325 46.7776 42.3723 47.0786C42.1121 47.3796 41.7876 47.6186 41.4227 47.7781C41.0578 47.9375 40.6617 48.0134 40.2636 48.0002H3.7504C3.35246 48.0137 2.95657 47.9379 2.59191 47.7784C2.22725 47.6188 1.90314 47.3797 1.64348 47.0785C1.38382 46.7773 1.19523 46.4219 1.09163 46.0383C0.988024 45.6547 0.972048 45.2528 1.04488 44.8622L4.79623 13.4974C4.95327 12.6376 5.40059 11.8574 6.06378 11.2865C6.72697 10.7156 7.56606 10.3884 8.44149 10.3594H35.5725C36.4506 10.385 37.2932 10.7106 37.9595 11.2818C38.6258 11.853 39.0753 12.6351 39.2329 13.4974L42.9767 44.8622Z" fill="#1B8057"></path><path d="M22.0061 38.8771C16.5496 38.8771 11.0325 35.2098 11.0325 28.2079C11.0325 27.7868 11.2001 27.3829 11.4986 27.0851C11.7971 26.7873 12.2019 26.62 12.624 26.62C13.046 26.62 13.4508 26.7873 13.7493 27.0851C14.0478 27.3829 14.2154 27.7868 14.2154 28.2079C14.2154 33.3572 18.2548 35.7013 22.0061 35.7013C25.7575 35.7013 29.8044 33.3572 29.8044 28.2079C29.8323 27.8047 30.0124 27.4271 30.3086 27.1513C30.6047 26.8756 30.9946 26.7222 31.3997 26.7222C31.8047 26.7222 32.1947 26.8756 32.4908 27.1513C32.7869 27.4271 32.9671 27.8047 32.9949 28.2079C32.9874 35.2098 27.4626 38.8771 22.0061 38.8771Z" fill="white"></path><path d="M31.3883 12.2571C30.9662 12.2571 30.5614 12.0898 30.263 11.792C29.9645 11.4942 29.7968 11.0903 29.7968 10.6692C29.8044 5.51985 25.7575 3.1758 22.0061 3.1758C18.2548 3.1758 14.2154 5.51985 14.2154 10.6692C14.2154 11.0903 14.0478 11.4942 13.7493 11.792C13.4508 12.0898 13.046 12.2571 12.624 12.2571C12.2019 12.2571 11.7971 12.0898 11.4986 11.792C11.2001 11.4942 11.0325 11.0903 11.0325 10.6692C11.0325 3.6673 16.5496 0 22.0061 0C27.4626 0 32.9874 3.6673 32.9874 10.6692C32.9854 11.091 32.816 11.4949 32.5163 11.7925C32.2167 12.09 31.8111 12.2571 31.3883 12.2571Z" fill="#FFCC1D"></path><path d="M15.2385 22.1436C15.2385 22.6614 15.0845 23.1675 14.796 23.5979C14.5075 24.0283 14.0976 24.3636 13.618 24.5614C13.1384 24.7592 12.6108 24.8106 12.1019 24.709C11.5931 24.6075 11.1259 24.3575 10.7595 23.9909C10.3931 23.6242 10.1439 23.1574 10.0436 22.6494C9.94329 22.1414 9.9963 21.6151 10.1959 21.1372C10.3956 20.6592 10.7328 20.2512 11.165 19.9646C11.5972 19.678 12.1049 19.5259 12.6239 19.5274C12.9679 19.5274 13.3085 19.5951 13.6262 19.7267C13.9439 19.8582 14.2325 20.0511 14.4753 20.2941C14.7182 20.5371 14.9107 20.8256 15.0416 21.143C15.1726 21.4604 15.2395 21.8004 15.2385 22.1436Z" fill="white"></path><path d="M28.4933 24.5331C28.1497 24.5315 27.8158 24.4189 27.5416 24.2123C27.2675 24.0056 27.0677 23.716 26.9722 23.3867C26.8766 23.0573 26.8905 22.706 27.0117 22.3852C27.1329 22.0644 27.3549 21.7913 27.6445 21.6068C27.7961 21.5085 31.4337 19.2477 34.8213 21.6598C35.0045 21.7753 35.1621 21.9269 35.2845 22.1053C35.4069 22.2837 35.4915 22.4852 35.5331 22.6974C35.5747 22.9096 35.5724 23.1281 35.5263 23.3393C35.4803 23.5506 35.3915 23.7503 35.2654 23.9261C35.1393 24.102 34.9786 24.2503 34.793 24.3619C34.6074 24.4736 34.401 24.5462 34.1862 24.5754C33.9715 24.6047 33.7531 24.5898 33.5443 24.5318C33.3356 24.4738 33.1409 24.3739 32.9722 24.2382C31.3504 23.0813 29.3648 24.276 29.3421 24.2911C29.0895 24.454 28.794 24.5383 28.4933 24.5331Z" fill="white"></path></svg>