<svg xmlns="http://www.w3.org/2000/svg" width="126" height="50" viewBox="0 0 126 50" fill="none"><path d="M51.9943 39.9998V36.7143L65.0597 18.3819H51.9688V13.818H72.0142V17.1035L58.9361 35.4359H72.0398V39.9998H51.9943Z" fill="white"></path><path d="M76.185 39.9998V20.3635H81.631V39.9998H76.185ZM78.9208 17.8322C78.1112 17.8322 77.4165 17.5637 76.837 17.0268C76.266 16.4814 75.9805 15.8294 75.9805 15.0708C75.9805 14.3208 76.266 13.6774 76.837 13.1404C77.4165 12.595 78.1112 12.3223 78.9208 12.3223C79.7305 12.3223 80.4208 12.595 80.9918 13.1404C81.5714 13.6774 81.8612 14.3208 81.8612 15.0708C81.8612 15.8294 81.5714 16.4814 80.9918 17.0268C80.4208 17.5637 79.7305 17.8322 78.9208 17.8322Z" fill="white"></path><path d="M91.4396 13.818V39.9998H85.9936V13.818H91.4396Z" fill="white"></path><path d="M101.248 13.818V39.9998H95.8022V13.818H101.248Z" fill="white"></path><path d="M108.973 47.3635C108.283 47.3635 107.635 47.3081 107.03 47.1973C106.433 47.095 105.939 46.9629 105.547 46.801L106.774 42.7356C107.413 42.9316 107.989 43.0382 108.5 43.0552C109.02 43.0723 109.467 42.9529 109.842 42.6973C110.226 42.4416 110.537 42.0069 110.776 41.3933L111.095 40.5623L104.051 20.3635H109.778L113.844 34.7839H114.048L118.152 20.3635H123.918L116.286 42.122C115.919 43.1788 115.42 44.0993 114.79 44.8833C114.168 45.676 113.379 46.2853 112.425 46.7115C111.47 47.1461 110.32 47.3635 108.973 47.3635Z" fill="white"></path><path d="M42.9698 44.8622C43.0414 45.2532 43.0242 45.6553 42.9196 46.0388C42.815 46.4223 42.6257 46.7776 42.3655 47.0786C42.1052 47.3796 41.7808 47.6186 41.4159 47.7781C41.051 47.9375 40.6549 48.0134 40.2567 48.0002H3.74356C3.34563 48.0137 2.94973 47.9379 2.58507 47.7784C2.22042 47.6188 1.89631 47.3797 1.63664 47.0785C1.37698 46.7773 1.18839 46.4219 1.08479 46.0383C0.981188 45.6547 0.965212 45.2528 1.03804 44.8622L4.7894 13.4974C4.94644 12.6376 5.39375 11.8574 6.05694 11.2865C6.72013 10.7156 7.55922 10.3884 8.43465 10.3594H35.5657C36.4437 10.385 37.2864 10.7106 37.9526 11.2818C38.6189 11.853 39.0685 12.6351 39.2261 13.4974L42.9698 44.8622Z" fill="white"></path><path d="M22.0003 38.8771C16.5438 38.8771 11.0266 35.2098 11.0266 28.2079C11.0266 27.7868 11.1943 27.3829 11.4927 27.0851C11.7912 26.7873 12.196 26.62 12.6181 26.62C13.0402 26.62 13.445 26.7873 13.7434 27.0851C14.0419 27.3829 14.2096 27.7868 14.2096 28.2079C14.2096 33.3572 18.2489 35.7013 22.0003 35.7013C25.7516 35.7013 29.7985 33.3572 29.7985 28.2079C29.8264 27.8047 30.0066 27.4271 30.3027 27.1513C30.5988 26.8756 30.9888 26.7222 31.3938 26.7222C31.7989 26.7222 32.1888 26.8756 32.4849 27.1513C32.781 27.4271 32.9612 27.8047 32.9891 28.2079C32.9815 35.2098 27.4568 38.8771 22.0003 38.8771Z" fill="#1B8057"></path><path d="M31.3824 12.2571C30.9604 12.2571 30.5556 12.0898 30.2571 11.792C29.9586 11.4942 29.791 11.0903 29.791 10.6692C29.7985 5.51985 25.7516 3.1758 22.0003 3.1758C18.2489 3.1758 14.2096 5.51985 14.2096 10.6692C14.2096 11.0903 14.0419 11.4942 13.7434 11.792C13.445 12.0898 13.0402 12.2571 12.6181 12.2571C12.196 12.2571 11.7912 12.0898 11.4927 11.792C11.1943 11.4942 11.0266 11.0903 11.0266 10.6692C11.0266 3.6673 16.5438 0 22.0003 0C27.4568 0 32.9815 3.6673 32.9815 10.6692C32.9795 11.091 32.8101 11.4949 32.5105 11.7925C32.2108 12.09 31.8052 12.2571 31.3824 12.2571Z" fill="#FFCC1D"></path><path d="M15.2326 22.1436C15.2326 22.6614 15.0786 23.1675 14.7902 23.5979C14.5017 24.0283 14.0917 24.3636 13.6121 24.5614C13.1326 24.7592 12.6049 24.8106 12.0961 24.709C11.5872 24.6075 11.12 24.3575 10.7536 23.9909C10.3872 23.6242 10.1381 23.1574 10.0377 22.6494C9.93743 22.1414 9.99044 21.6151 10.1901 21.1372C10.3897 20.6592 10.727 20.2512 11.1592 19.9646C11.5914 19.678 12.0991 19.5259 12.618 19.5274C12.962 19.5274 13.3026 19.5951 13.6203 19.7267C13.938 19.8582 14.2266 20.0511 14.4695 20.2941C14.7124 20.5371 14.9048 20.8256 15.0358 21.143C15.1667 21.4604 15.2336 21.8004 15.2326 22.1436Z" fill="#1B8057"></path><path d="M28.4874 24.5331C28.1438 24.5315 27.81 24.4189 27.5358 24.2123C27.2616 24.0056 27.0618 23.716 26.9663 23.3867C26.8708 23.0573 26.8846 22.706 27.0058 22.3852C27.127 22.0644 27.349 21.7913 27.6386 21.6068C27.7902 21.5085 31.4279 19.2477 34.8155 21.6598C34.9987 21.7753 35.1563 21.9269 35.2787 22.1053C35.4011 22.2837 35.4856 22.4852 35.5272 22.6974C35.5688 22.9096 35.5665 23.1281 35.5205 23.3393C35.4745 23.5506 35.3857 23.7503 35.2596 23.9261C35.1335 24.102 34.9727 24.2503 34.7871 24.3619C34.6016 24.4736 34.3951 24.5462 34.1804 24.5754C33.9657 24.6047 33.7472 24.5898 33.5385 24.5318C33.3297 24.4738 33.135 24.3739 32.9663 24.2382C31.3445 23.0813 29.359 24.276 29.3362 24.2911C29.0836 24.454 28.7882 24.5383 28.4874 24.5331Z" fill="#1B8057"></path></svg>